<svg width="129" height="113" viewBox="0 0 129 113" fill="none" xmlns="http://www.w3.org/2000/svg">
<path fill-rule="evenodd" clip-rule="evenodd" d="M1.41046 70.0309C10.9468 92.4765 32.9404 108.583 59.0734 109.495C94.9472 110.748 125.037 82.8954 126.28 47.2847C126.768 33.3156 122.745 20.2278 115.509 9.4037L109.787 12.4441C116.516 22.288 120.272 34.2631 119.825 47.0593C118.705 79.1311 91.6059 104.216 59.2971 103.087C35.5465 102.258 15.5923 87.4943 7.13251 66.9905L1.41046 70.0309Z" fill="#68D585"/>
<path fill-rule="evenodd" clip-rule="evenodd" d="M19.9944 72.2593C28.5156 85.1387 43.0091 93.8614 59.7249 94.4451C87.0572 95.3996 109.981 74.2319 110.926 47.1657C111.572 28.6739 101.791 12.2129 86.8135 3.33497L82.2185 8.0747C95.9751 15.5993 105.068 30.3279 104.488 46.9409C103.666 70.4863 83.7244 88.9005 59.9475 88.0702C44.8716 87.5437 31.8735 79.4068 24.5889 67.52L19.9944 72.2593Z" fill="#161C2D"/>
</svg>
